<mxfile host="app.diagrams.net" agent="Mozilla/5.0 (Windows NT 10.0; Win64; x64) AppleWebKit/537.36 (KHTML, like Gecko) Chrome/130.0.0.0 YaBrowser/24.12.0.0 Safari/537.36" version="26.0.9">
  <diagram name="Страница — 1" id="dJGAg-3A7f6VQTg8eMSE">
    <mxGraphModel dx="1050" dy="575" grid="1" gridSize="10" guides="1" tooltips="1" connect="1" arrows="1" fold="1" page="1" pageScale="1" pageWidth="827" pageHeight="1169" math="0" shadow="0">
      <root>
        <mxCell id="0" />
        <mxCell id="1" parent="0" />
        <mxCell id="g1u1SIZiiyPeYpM7kZtF-2" style="edgeStyle=orthogonalEdgeStyle;rounded=0;orthogonalLoop=1;jettySize=auto;html=1;" edge="1" parent="1" source="g1u1SIZiiyPeYpM7kZtF-1" target="g1u1SIZiiyPeYpM7kZtF-3">
          <mxGeometry relative="1" as="geometry">
            <mxPoint x="120" y="80" as="targetPoint" />
          </mxGeometry>
        </mxCell>
        <mxCell id="g1u1SIZiiyPeYpM7kZtF-1" value="maschtab начало" style="ellipse;whiteSpace=wrap;html=1;" vertex="1" parent="1">
          <mxGeometry x="60" width="120" height="60" as="geometry" />
        </mxCell>
        <mxCell id="g1u1SIZiiyPeYpM7kZtF-6" style="edgeStyle=orthogonalEdgeStyle;rounded=0;orthogonalLoop=1;jettySize=auto;html=1;" edge="1" parent="1" source="g1u1SIZiiyPeYpM7kZtF-3" target="g1u1SIZiiyPeYpM7kZtF-7">
          <mxGeometry relative="1" as="geometry">
            <mxPoint x="120" y="160" as="targetPoint" />
          </mxGeometry>
        </mxCell>
        <mxCell id="g1u1SIZiiyPeYpM7kZtF-3" value="инициализация с" style="shape=parallelogram;perimeter=parallelogramPerimeter;whiteSpace=wrap;html=1;fixedSize=1;" vertex="1" parent="1">
          <mxGeometry x="60" y="80" width="120" height="60" as="geometry" />
        </mxCell>
        <mxCell id="g1u1SIZiiyPeYpM7kZtF-4" value="" style="endArrow=none;dashed=1;html=1;rounded=0;" edge="1" parent="1" target="g1u1SIZiiyPeYpM7kZtF-5">
          <mxGeometry width="50" height="50" relative="1" as="geometry">
            <mxPoint x="170" y="110" as="sourcePoint" />
            <mxPoint x="240" y="110" as="targetPoint" />
          </mxGeometry>
        </mxCell>
        <mxCell id="g1u1SIZiiyPeYpM7kZtF-5" value="по значению" style="strokeWidth=2;html=1;shape=mxgraph.flowchart.annotation_1;align=left;pointerEvents=1;" vertex="1" parent="1">
          <mxGeometry x="215" y="80" width="50" height="60" as="geometry" />
        </mxCell>
        <mxCell id="g1u1SIZiiyPeYpM7kZtF-8" style="edgeStyle=orthogonalEdgeStyle;rounded=0;orthogonalLoop=1;jettySize=auto;html=1;entryX=0.5;entryY=0;entryDx=0;entryDy=0;" edge="1" parent="1" source="g1u1SIZiiyPeYpM7kZtF-7" target="g1u1SIZiiyPeYpM7kZtF-11">
          <mxGeometry relative="1" as="geometry">
            <mxPoint x="120" y="320" as="targetPoint" />
          </mxGeometry>
        </mxCell>
        <mxCell id="g1u1SIZiiyPeYpM7kZtF-9" style="edgeStyle=orthogonalEdgeStyle;rounded=0;orthogonalLoop=1;jettySize=auto;html=1;" edge="1" parent="1" source="g1u1SIZiiyPeYpM7kZtF-7" target="g1u1SIZiiyPeYpM7kZtF-10">
          <mxGeometry relative="1" as="geometry">
            <mxPoint x="240" y="330" as="targetPoint" />
            <Array as="points">
              <mxPoint x="240" y="190" />
            </Array>
          </mxGeometry>
        </mxCell>
        <mxCell id="g1u1SIZiiyPeYpM7kZtF-7" value="c=" style="rhombus;whiteSpace=wrap;html=1;" vertex="1" parent="1">
          <mxGeometry x="60" y="160" width="120" height="60" as="geometry" />
        </mxCell>
        <mxCell id="g1u1SIZiiyPeYpM7kZtF-18" style="edgeStyle=orthogonalEdgeStyle;rounded=0;orthogonalLoop=1;jettySize=auto;html=1;" edge="1" parent="1" source="g1u1SIZiiyPeYpM7kZtF-10">
          <mxGeometry relative="1" as="geometry">
            <mxPoint x="120" y="440" as="targetPoint" />
            <Array as="points">
              <mxPoint x="240" y="420" />
              <mxPoint x="121" y="420" />
            </Array>
          </mxGeometry>
        </mxCell>
        <mxCell id="g1u1SIZiiyPeYpM7kZtF-10" value="&lt;span style=&quot;font-size: 12pt; font-family: Consolas;&quot; lang=&quot;EN-US&quot;&gt;step := step + &lt;/span&gt;&lt;span style=&quot;font-size:12.0pt;font-family:Consolas;mso-fareast-font-family:&lt;br/&gt;Calibri;mso-fareast-theme-font:minor-latin;mso-bidi-font-family:&amp;quot;Courier New&amp;quot;;&lt;br/&gt;color:darkgreen;mso-font-kerning:0pt;mso-ansi-language:EN-US;mso-fareast-language:&lt;br/&gt;EN-US;mso-bidi-language:AR-SA&quot; lang=&quot;EN-US&quot;&gt;1&lt;/span&gt;" style="rounded=0;whiteSpace=wrap;html=1;" vertex="1" parent="1">
          <mxGeometry x="190" y="320" width="100" height="40" as="geometry" />
        </mxCell>
        <mxCell id="g1u1SIZiiyPeYpM7kZtF-19" style="edgeStyle=orthogonalEdgeStyle;rounded=0;orthogonalLoop=1;jettySize=auto;html=1;" edge="1" parent="1" source="g1u1SIZiiyPeYpM7kZtF-11" target="g1u1SIZiiyPeYpM7kZtF-20">
          <mxGeometry relative="1" as="geometry">
            <mxPoint x="120" y="440" as="targetPoint" />
          </mxGeometry>
        </mxCell>
        <mxCell id="g1u1SIZiiyPeYpM7kZtF-11" value="&lt;span style=&quot;font-size: 12pt; font-family: Consolas;&quot; lang=&quot;EN-US&quot;&gt;step := step - &lt;/span&gt;&lt;span style=&quot;font-size:12.0pt;font-family:Consolas;mso-fareast-font-family:&lt;br/&gt;Calibri;mso-fareast-theme-font:minor-latin;mso-bidi-font-family:&amp;quot;Courier New&amp;quot;;&lt;br/&gt;color:darkgreen;mso-font-kerning:0pt;mso-ansi-language:EN-US;mso-fareast-language:&lt;br/&gt;EN-US;mso-bidi-language:AR-SA&quot; lang=&quot;EN-US&quot;&gt;1&lt;/span&gt;" style="rounded=0;whiteSpace=wrap;html=1;" vertex="1" parent="1">
          <mxGeometry x="70" y="360" width="100" height="40" as="geometry" />
        </mxCell>
        <mxCell id="g1u1SIZiiyPeYpM7kZtF-14" style="edgeStyle=orthogonalEdgeStyle;rounded=0;orthogonalLoop=1;jettySize=auto;html=1;exitX=0;exitY=0.5;exitDx=0;exitDy=0;entryX=0.5;entryY=0;entryDx=0;entryDy=0;" edge="1" parent="1" source="g1u1SIZiiyPeYpM7kZtF-12" target="g1u1SIZiiyPeYpM7kZtF-7">
          <mxGeometry relative="1" as="geometry">
            <Array as="points">
              <mxPoint x="40" y="280" />
              <mxPoint x="40" y="150" />
              <mxPoint x="120" y="150" />
            </Array>
          </mxGeometry>
        </mxCell>
        <mxCell id="g1u1SIZiiyPeYpM7kZtF-12" value="step&amp;gt;1" style="rhombus;whiteSpace=wrap;html=1;" vertex="1" parent="1">
          <mxGeometry x="80" y="240" width="80" height="80" as="geometry" />
        </mxCell>
        <mxCell id="g1u1SIZiiyPeYpM7kZtF-13" value="Да" style="text;html=1;align=center;verticalAlign=middle;whiteSpace=wrap;rounded=0;" vertex="1" parent="1">
          <mxGeometry x="120" y="325" width="60" height="30" as="geometry" />
        </mxCell>
        <mxCell id="g1u1SIZiiyPeYpM7kZtF-15" value="нет" style="text;html=1;align=center;verticalAlign=middle;whiteSpace=wrap;rounded=0;" vertex="1" parent="1">
          <mxGeometry x="40" y="250" width="60" height="30" as="geometry" />
        </mxCell>
        <mxCell id="g1u1SIZiiyPeYpM7kZtF-16" value="c=&#39;a&#39;" style="text;html=1;align=center;verticalAlign=middle;whiteSpace=wrap;rounded=0;" vertex="1" parent="1">
          <mxGeometry x="110" y="220" width="60" height="30" as="geometry" />
        </mxCell>
        <mxCell id="g1u1SIZiiyPeYpM7kZtF-17" value="c=&#39;d&#39;" style="text;html=1;align=center;verticalAlign=middle;whiteSpace=wrap;rounded=0;" vertex="1" parent="1">
          <mxGeometry x="170" y="160" width="60" height="30" as="geometry" />
        </mxCell>
        <mxCell id="g1u1SIZiiyPeYpM7kZtF-21" style="edgeStyle=orthogonalEdgeStyle;rounded=0;orthogonalLoop=1;jettySize=auto;html=1;" edge="1" parent="1" source="g1u1SIZiiyPeYpM7kZtF-20" target="g1u1SIZiiyPeYpM7kZtF-22">
          <mxGeometry relative="1" as="geometry">
            <mxPoint x="120" y="520" as="targetPoint" />
          </mxGeometry>
        </mxCell>
        <mxCell id="g1u1SIZiiyPeYpM7kZtF-20" value="window.clear" style="shape=parallelogram;perimeter=parallelogramPerimeter;whiteSpace=wrap;html=1;fixedSize=1;" vertex="1" parent="1">
          <mxGeometry x="60" y="440" width="120" height="60" as="geometry" />
        </mxCell>
        <mxCell id="g1u1SIZiiyPeYpM7kZtF-23" style="edgeStyle=orthogonalEdgeStyle;rounded=0;orthogonalLoop=1;jettySize=auto;html=1;" edge="1" parent="1" source="g1u1SIZiiyPeYpM7kZtF-22" target="g1u1SIZiiyPeYpM7kZtF-24">
          <mxGeometry relative="1" as="geometry">
            <mxPoint x="120" y="600" as="targetPoint" />
          </mxGeometry>
        </mxCell>
        <mxCell id="g1u1SIZiiyPeYpM7kZtF-22" value="возврат с" style="shape=parallelogram;perimeter=parallelogramPerimeter;whiteSpace=wrap;html=1;fixedSize=1;" vertex="1" parent="1">
          <mxGeometry x="60" y="520" width="120" height="60" as="geometry" />
        </mxCell>
        <mxCell id="g1u1SIZiiyPeYpM7kZtF-24" value="maschtab конец" style="ellipse;whiteSpace=wrap;html=1;" vertex="1" parent="1">
          <mxGeometry x="60" y="600" width="120" height="60" as="geometry" />
        </mxCell>
      </root>
    </mxGraphModel>
  </diagram>
</mxfile>
